<?xml version="1.0" encoding="UTF-8"?>
<svg width="170px" height="170px" viewBox="0 0 170 170" version="1.1" xmlns="http://www.w3.org/2000/svg">
    <g stroke="none" stroke-width="1" fill="none" fill-rule="evenodd">
        <g transform="translate(21, 21)" fill-rule="nonzero">
            <ellipse fill="#3B88C3" cx="64.2651766" cy="108.863259" rx="64.2651766" ry="19.1367415" />
            <path d="M120.718564,101.715543 C120.718564,107.485128 111.792845,110.951877 69.0136591,110.951877 C30.0082672,110.951877 20.4149044,107.485128 20.4149044,101.715543 C20.4149044,95.945958 40.7048488,91.2688813 69.0136591,91.2688813 C97.3224694,91.2688813 120.718564,95.945958 120.718564,101.715543 L120.718564,101.715543 Z" fill="#88C9F9" />
            <path d="M24.9920131,100.6873 C24.9920131,97.1170123 28.5623007,82.835862 64.2651766,82.835862 C107.108628,82.835862 117.81949,97.1170123 117.81949,100.6873 C117.81949,104.257588 117.81949,107.827875 67.8354642,107.827875 C24.9920131,107.827875 24.9920131,104.257588 24.9920131,100.6873 Z" fill="#F4900C"/>
            <circle fill="#FFCC4D" cx="24.9920131" cy="22.1409729" r="17.851438"/>
            <circle fill="#FFAC33" cx="24.9920131" cy="22.1409729" r="14.2811504"/>
            <path d="M96.2156803,51.4780261 C96.0764391,49.4251107 95.8657921,47.4400308 95.5837394,45.5442081 C95.2445621,43.2735052 94.8196978,41.1349029 94.3448496,39.1284013 C93.9092745,37.2825626 93.4344262,35.561684 92.9452968,33.9800466 C92.2133879,31.6022351 91.4564869,29.5421791 90.7709917,27.8534331 C89.4249933,24.5366359 88.3646179,22.6408132 88.3646179,22.6408132 L79.142565,23.829719 C79.142565,23.829719 80.2065107,26.0504379 81.3597136,30.4026184 C81.8274213,32.1699108 82.3058398,34.2942319 82.7378446,36.7720115 C82.9556322,38.0251824 83.1591386,39.3568997 83.3447935,40.788585 C83.6018542,42.7808055 83.8125012,44.9551106 83.9624533,47.2972193 C84.0481402,48.6182257 84.1088351,49.9963567 84.1516785,51.4316123 C84.1659597,51.9528743 84.1909517,52.4562849 84.1980922,52.991828 C84.2230843,54.6662929 84.1052648,56.3693201 83.8981881,58.068777 C83.7089628,59.6004303 83.4340507,61.1249431 83.102014,62.6351748 C82.6271657,64.7987691 82.0452088,66.9266605 81.3918462,68.9545838 C80.8598734,70.5969161 80.2921976,72.1714129 79.7209516,73.6530823 C78.8426609,75.9273555 77.9607998,77.96956 77.1967583,79.6761575 C75.9185953,82.525247 74.9760394,84.42464 74.9760394,84.8209419 C74.9760394,86.0741128 75.8686113,88.4162215 82.1166146,89.9764372 C91.8849214,92.4185139 92.8274774,88.3912295 92.8274774,88.3912295 C92.8274774,88.3912295 93.4487074,86.5061176 94.1699055,82.7965888 C94.5269342,80.9650313 94.9053847,78.7014689 95.2517026,75.9594881 C95.4587793,74.3207261 95.6515748,72.5177308 95.8158081,70.557643 C95.9907522,68.5154385 96.1335637,66.3018601 96.237102,63.9061972 C96.312078,62.0924911 96.3584918,60.1538249 96.3763432,58.1401827 C96.3834838,57.5118121 96.3977649,56.9048632 96.3977649,56.2586412 C96.3977649,54.6198792 96.3227889,53.0346715 96.2156803,51.4780261 L96.2156803,51.4780261 Z" fill="#C1694F"/>
            <path d="M86.8436754,76.095159 C83.2626769,75.4703587 80.9776928,74.4278347 79.7245219,73.6459417 C78.8462311,75.9202149 77.9643701,77.9624194 77.2003286,79.6690169 C79.5388669,80.9400393 82.5093462,81.9540009 85.7297456,82.5109658 C87.5898655,82.835862 89.4357041,82.9965249 91.1672936,82.9965249 C92.2240988,82.9965249 93.2166387,82.9144083 94.1699055,82.7930185 C94.5269342,80.961461 94.9053847,78.6978987 95.2517026,75.9559178 C94.1163512,76.3593603 91.2993943,76.8734817 86.8436754,76.095159 L86.8436754,76.095159 Z M89.5499533,64.1632579 C86.7579885,63.8883457 84.6122456,63.2742563 83.1055842,62.6280342 C82.630736,64.7916285 82.0487791,66.9195199 81.3954165,68.9474433 C83.6018542,69.7793203 86.1974533,70.3791286 88.9144422,70.6469001 C90.0105204,70.7540088 91.0958879,70.8075631 92.1562633,70.8075631 C93.4379965,70.8075631 94.6554646,70.707595 95.8193784,70.5540727 C95.9943224,68.5118682 96.137134,66.2982899 96.2406723,63.9026269 C94.6340429,64.2525151 92.3847617,64.4453106 89.5499533,64.1632579 L89.5499533,64.1632579 Z M90.3389869,58.7221396 C92.438316,58.7221396 94.4983719,58.5114926 96.3799135,58.1401827 C96.3834838,57.5118121 96.3977649,56.9048632 96.3977649,56.2586412 C96.3977649,54.6234494 96.3227889,53.0382417 96.2156803,51.4780261 C94.8661116,51.8314845 92.934586,52.1706619 90.2104566,52.209935 C87.4434837,52.1992242 85.4976769,51.8136331 84.1481082,51.428042 C84.1623894,51.949304 84.1873814,52.4527146 84.194522,52.9882577 C84.219514,54.6627226 84.1016945,56.3657498 83.8946178,58.0652067 C85.8404245,58.4757897 87.993308,58.7114287 90.178324,58.7221396 L90.3389869,58.7221396 L90.3389869,58.7221396 Z M89.7034757,47.0365883 C91.8099454,46.7331139 93.7628927,46.1868599 95.5873097,45.5442081 C95.2481323,43.2735052 94.8232681,41.1349029 94.3484199,39.1284013 C93.0845381,39.6496633 91.2886834,40.2280499 88.7787712,40.5886489 C86.454514,40.924256 84.6836514,40.9028342 83.3447935,40.7850147 C83.6018542,42.7772352 83.8125012,44.9515404 83.9624533,47.293649 C84.3516146,47.3079302 84.7015028,47.3686251 85.101375,47.3686251 C86.6008958,47.3686251 88.1611115,47.2579461 89.7034757,47.0365883 L89.7034757,47.0365883 Z M92.9488671,33.9764763 C92.2133879,31.6022351 91.4564869,29.5421791 90.7709917,27.8534331 C89.6392105,28.4211088 88.2075252,29.0173468 86.3366945,29.5350385 C84.3087712,30.099144 82.6700092,30.3240721 81.3561433,30.4026184 C81.823851,32.1699108 82.3022695,34.2942319 82.7342743,36.7720115 C84.4730044,36.5970674 86.2652888,36.3150147 88.0789949,35.8116041 C89.8141546,35.3296153 91.4243543,34.6833932 92.9488671,33.9764763 L92.9488671,33.9764763 Z" id="Shape" fill="#D99E82"/>
            <path d="M123.349866,10.3340319 C123.235617,10.1840798 111.917805,-4.95750987 97.2403528,1.68322505 C90.6460316,4.66441518 86.3938191,9.53785775 84.8550252,15.8322748 C81.9845139,11.8157012 77.6216225,9.26651589 71.8448972,8.23827306 C56.0606557,5.42488644 46.5244176,22.9585688 46.4315901,23.1335129 C46.2923489,23.3905736 46.3530438,23.7047589 46.5708313,23.8975544 C46.7921892,24.0867797 47.1099448,24.1010608 47.3455837,23.9332573 C47.4169895,23.879703 54.6182596,18.8384569 66.6108556,20.9770592 C78.8676529,23.1585049 87.4613351,25.3006775 87.547022,25.3220992 C87.6005763,25.33281 87.6469901,25.3399506 87.7005444,25.3399506 C87.8719182,25.3399506 88.0397217,25.2685449 88.1611115,25.1400145 C88.2396578,25.0543276 96.3834838,16.3035527 103.870377,12.9189201 C114.95255,7.90623632 122.510848,11.2337444 122.578684,11.2694472 C122.835745,11.3872667 123.142789,11.315861 123.324874,11.0945031 C123.506959,10.8767156 123.517669,10.5661006 123.349866,10.3340319 Z" fill="#3E721D"/>
            <path d="M111.139482,19.1097988 C99.9502011,13.2009728 91.2529805,16.1428898 85.8511354,19.7310288 C79.378204,18.4778579 67.2820696,18.4564361 57.031774,31.5986648 C44.4465102,47.7292241 55.4858394,67.8442244 55.5965184,68.0477308 C55.7071973,68.2476669 55.9178442,68.3654864 56.1427724,68.3654864 L56.2177484,68.3619161 C56.4712388,68.3297835 56.6783155,68.1476988 56.7425807,67.9049193 C56.7818538,67.7656781 60.6591862,53.7415884 70.4631959,41.9489285 C75.8221976,35.5045594 82.2201529,29.5457494 86.7222856,25.6220033 C91.2565508,26.375334 97.9187075,28.0426583 104.463045,31.6986328 C117.219682,38.8320674 123.071384,50.9032098 123.128508,51.0245995 C123.242757,51.2602385 123.489107,51.4244718 123.760449,51.378058 C124.02465,51.3494957 124.242438,51.1567002 124.299562,50.8996395 C124.349546,50.6747114 129.269403,28.6853101 111.139482,19.1097988 L111.139482,19.1097988 Z" fill="#5C913B"/>
        </g>
    </g>
</svg>
